<svg width="18" height="18" viewBox="0 0 18 18" fill="none"
    xmlns="http://www.w3.org/2000/svg">
    <rect x="1" y="1" width="16" height="16" rx="8" fill="#0F62FE"/>
    <path d="M12.164 10.404H10.352C10.2459 10.404 10.1442 10.4461 10.0692 10.5212C9.99414 10.5962 9.952 10.6979 9.952 10.804C9.952 10.9101 9.99414 11.0118 10.0692 11.0868C10.1442 11.1619 10.2459 11.204 10.352 11.204H11.312C10.8708 11.6651 10.3018 11.9837 9.67807 12.119C9.05437 12.2542 8.40448 12.1998 7.81191 11.9629C7.21934 11.726 6.71115 11.3172 6.35264 10.7893C5.99413 10.2613 5.80167 9.63819 5.8 9C5.8 8.89391 5.75786 8.79217 5.68284 8.71716C5.60783 8.64214 5.50609 8.6 5.4 8.6C5.29391 8.6 5.19217 8.64214 5.11716 8.71716C5.04214 8.79217 5 8.89391 5 9C5.00211 9.78112 5.23289 10.5445 5.66384 11.196C6.09479 11.8475 6.70707 12.3585 7.4251 12.6661C8.14313 12.9736 8.93549 13.0642 9.70441 12.9267C10.4733 12.7891 11.1851 12.4294 11.752 11.892V12.6C11.752 12.7061 11.7941 12.8078 11.8692 12.8828C11.9442 12.9579 12.0459 13 12.152 13C12.2581 13 12.3598 12.9579 12.4348 12.8828C12.5099 12.8078 12.552 12.7061 12.552 12.6V10.8C12.551 10.6967 12.5101 10.5977 12.4377 10.5239C12.3654 10.4501 12.2673 10.4071 12.164 10.404ZM9 5C7.97455 5.00292 6.9894 5.39957 6.248 6.108V5.4C6.248 5.29391 6.20586 5.19217 6.13084 5.11716C6.05583 5.04214 5.95409 5 5.848 5C5.74191 5 5.64017 5.04214 5.56516 5.11716C5.49014 5.19217 5.448 5.29391 5.448 5.4V7.2C5.448 7.30609 5.49014 7.40783 5.56516 7.48284C5.64017 7.55786 5.74191 7.6 5.848 7.6H7.648C7.75409 7.6 7.85583 7.55786 7.93084 7.48284C8.00586 7.40783 8.048 7.30609 8.048 7.2C8.048 7.09391 8.00586 6.99217 7.93084 6.91716C7.85583 6.84214 7.75409 6.8 7.648 6.8H6.688C7.12899 6.33915 7.69764 6.0206 8.32096 5.88524C8.94428 5.74989 9.59384 5.8039 10.1862 6.04035C10.7786 6.27679 11.2869 6.68488 11.6457 7.21224C12.0045 7.7396 12.1975 8.36215 12.2 9C12.2 9.10609 12.2421 9.20783 12.3172 9.28284C12.3922 9.35786 12.4939 9.4 12.6 9.4C12.7061 9.4 12.8078 9.35786 12.8828 9.28284C12.9579 9.20783 13 9.10609 13 9C13 8.47471 12.8965 7.95457 12.6955 7.46927C12.4945 6.98396 12.1999 6.54301 11.8284 6.17157C11.457 5.80014 11.016 5.5055 10.5307 5.30448C10.0454 5.10346 9.52529 5 9 5Z" fill="white"/>
    <rect x="1" y="1" width="16" height="16" rx="8" stroke="white" stroke-width="2"/>
</svg>
