<svg width="80" height="81" viewBox="0 0 80 81" fill="none" xmlns="http://www.w3.org/2000/svg">
    <path d="M14.0693 33.0805H65.9649C69.3881 33.0805 72.5032 33.8336 75.1733 35.2371L66.7522 15.4511C64.5272 10.1451 59.9401 7.20117 53.8126 7.20117H26.2217C20.0941 7.20117 15.5071 10.1451 13.2478 15.4511L4.8267 35.2029C7.53102 33.8336 10.6461 33.0805 14.0693 33.0805ZM14.0693 66.0116H65.9649C74.2833 66.0116 80 60.3291 80 52.045C80 43.7609 74.2833 38.0784 65.9649 38.0784H14.0693C5.71673 38.0784 0 43.7609 0 52.045C0 60.3291 5.71673 66.0116 14.0693 66.0116ZM62.3785 52.045C62.369 50.2061 63.8864 48.7135 65.7253 48.7325C67.5452 48.7513 69.013 50.225 69.0036 52.045C68.9942 53.8555 67.5357 55.3046 65.7253 55.3233C63.8958 55.3422 62.388 53.8745 62.3785 52.045Z" fill="url(#paint0_linear)"/>
    <path d="M3.95239 77.3829H28.367C30.7789 77.3829 32.3194 75.609 32.3194 73.4305C32.3194 72.777 32.1482 72.1079 31.8059 71.4855L19.5752 49.6384C18.8283 48.2846 17.5057 47.6155 16.1675 47.6155C14.8293 47.6155 13.491 48.3001 12.7441 49.6384L0.529061 71.501C0.186727 72.1234 0 72.777 0 73.4305C0 75.609 1.55606 77.3829 3.95239 77.3829Z" fill="white"/>
    <path d="M3.95239 77.3829H28.367C30.7789 77.3829 32.3194 75.609 32.3194 73.4305C32.3194 72.777 32.1482 72.1079 31.8059 71.4855L19.5752 49.6384C18.8283 48.2846 17.5057 47.6155 16.1675 47.6155C14.8293 47.6155 13.491 48.3001 12.7441 49.6384L0.529061 71.501C0.186727 72.1234 0 72.777 0 73.4305C0 75.609 1.55606 77.3829 3.95239 77.3829ZM16.183 66.7239C15.265 66.7239 14.7515 66.2104 14.7203 65.2923L14.5025 57.4498C14.4714 56.5006 15.156 55.8315 16.1675 55.8315C17.1478 55.8315 17.8636 56.5006 17.8325 57.4498L17.599 65.2768C17.5679 66.226 17.0544 66.7239 16.183 66.7239ZM16.183 72.0768C15.1405 72.0768 14.2691 71.3298 14.2691 70.3028C14.2691 69.2914 15.1249 68.5289 16.183 68.5289C17.2256 68.5289 18.0814 69.2758 18.0814 70.3028C18.0814 71.3298 17.21 72.0768 16.183 72.0768Z" fill="#F1C21B"/>
    <defs>
        <linearGradient id="paint0_linear" x1="40.0171" y1="6.9547" x2="40" y2="66.0116" gradientUnits="userSpaceOnUse">
            <stop stop-color="#97A0AF"/>
            <stop offset="0.477123" stop-color="#B3BAC5"/>
            <stop offset="0.505058" stop-color="#97A0AF"/>
            <stop offset="1" stop-color="#7A869A"/>
        </linearGradient>
    </defs>
</svg>