<svg width="66" height="57" viewBox="0 0 66 57" fill="none"
    xmlns="http://www.w3.org/2000/svg">
    <path d="M12.0934 20.8652H53.9342C56.6942 20.8652 59.2057 21.4724 61.3585 22.604L54.569 6.65148C52.775 2.37356 49.0767 0 44.1364 0H21.8912C16.9509 0 13.2526 2.37356 11.431 6.65148L4.64153 22.5764C6.82189 21.4724 9.33344 20.8652 12.0934 20.8652ZM12.0934 47.4159H53.9342C60.6409 47.4159 65.25 42.8344 65.25 36.1553C65.25 29.4763 60.6409 24.8947 53.9342 24.8947H12.0934C5.35911 24.8947 0.75 29.4763 0.75 36.1553C0.75 42.8344 5.35911 47.4159 12.0934 47.4159ZM51.0427 36.1553C51.035 34.6727 52.2584 33.4693 53.741 33.4846C55.2083 33.4998 56.3918 34.6879 56.3841 36.1553C56.3766 37.6151 55.2007 38.7834 53.741 38.7985C52.266 38.8137 51.0503 37.6304 51.0427 36.1553Z" fill="url(#paint0_linear)"/>
    <path d="M3.93662 56.584H23.6209C25.5655 56.584 26.8075 55.1538 26.8075 53.3974C26.8075 52.8704 26.6695 52.331 26.3935 51.8291L16.5325 34.2149C15.9303 33.1235 14.864 32.584 13.785 32.584C12.7061 32.584 11.6272 33.136 11.025 34.2149L1.17656 51.8417C0.900549 52.3435 0.75 52.8704 0.75 53.3974C0.75 55.1538 2.00457 56.584 3.93662 56.584Z" fill="white"/>
    <path d="M3.93662 56.584H23.6209C25.5655 56.584 26.8075 55.1538 26.8075 53.3974C26.8075 52.8704 26.6695 52.331 26.3935 51.8291L16.5325 34.2149C15.9303 33.1235 14.864 32.584 13.785 32.584C12.7061 32.584 11.6272 33.136 11.025 34.2149L1.17656 51.8417C0.900549 52.3435 0.75 52.8704 0.75 53.3974C0.75 55.1538 2.00457 56.584 3.93662 56.584ZM13.7976 47.9902C13.0574 47.9902 12.6434 47.5761 12.6183 46.8359L12.4426 40.5129C12.4175 39.7476 12.9696 39.2081 13.785 39.2081C14.5754 39.2081 15.1525 39.7476 15.1274 40.5129L14.9392 46.8234C14.9141 47.5887 14.5001 47.9902 13.7976 47.9902ZM13.7976 52.3059C12.957 52.3059 12.2544 51.7037 12.2544 50.8757C12.2544 50.0602 12.9445 49.4455 13.7976 49.4455C14.6381 49.4455 15.3281 50.0477 15.3281 50.8757C15.3281 51.7037 14.6256 52.3059 13.7976 52.3059Z" fill="#F1C21B"/>
    <defs>
        <linearGradient id="paint0_linear" x1="33.0138" y1="-0.198716" x2="33" y2="47.4159" gradientUnits="userSpaceOnUse">
            <stop stop-color="#97A0AF"/>
            <stop offset="0.477123" stop-color="#B3BAC5"/>
            <stop offset="0.505058" stop-color="#97A0AF"/>
            <stop offset="1" stop-color="#7A869A"/>
        </linearGradient>
    </defs>
</svg>
