<svg width="93" height="81" viewBox="0 0 93 81" fill="none" xmlns="http://www.w3.org/2000/svg">
<path d="M70.2351 60.8569C83.0203 60.8569 92.9643 51.2286 92.9643 39.0748C92.9643 26.7632 82.6257 17.5689 69.0908 17.6084C63.9215 6.91463 54.9245 0.127441 42.3761 0.127441C27.4996 0.127441 15.2274 12.2812 13.9252 27.7497C6.11205 29.8016 0.0351562 35.918 0.0351562 44.4809C0.0351562 53.4779 6.6645 60.8569 18.1869 60.8569L26.6851 60.8543C27.4907 60.8543 28.1438 60.2012 28.1438 59.3956C28.1438 58.59 27.4907 57.9369 26.6851 57.9369H18.1475C8.51913 57.9369 2.99468 51.9784 2.99468 44.5204C2.99468 37.6937 7.61155 32.4849 14.8723 30.5908C16.2928 30.1962 16.7664 29.6438 16.8453 28.4205C17.6739 14.3726 29.2358 3.04751 42.3761 3.04751C53.7802 3.04751 61.909 9.51901 66.4075 18.8711C66.9994 20.1338 67.7491 20.5679 69.2881 20.5679C81.284 20.5679 90.0048 28.8151 90.0048 39.1932C90.0048 49.5318 81.363 57.9369 70.3141 57.9369H66.086C65.2804 57.9369 64.6273 58.59 64.6273 59.3956C64.6273 60.2012 65.2804 60.8543 66.086 60.8543L70.2351 60.8569Z" fill="#42526E"/>
<path d="M38.3203 39.8262L30.3178 47.9235C30.081 48.1603 29.9547 48.4602 29.9547 48.7443C29.9547 49.3757 30.3967 49.8018 31.0123 49.8018C31.3279 49.8018 31.5647 49.7071 31.7857 49.4861L35.3845 45.8242L38.1625 42.7621L38.052 46.282V67.3222C38.052 67.9378 38.4939 68.4113 39.1253 68.4113C39.7409 68.4113 40.1828 67.9378 40.1828 67.3222V46.282L40.0724 42.7621L42.8661 45.8242L46.4492 49.4861C46.6701 49.7071 46.9227 49.8018 47.2226 49.8018C47.8382 49.8018 48.2801 49.3757 48.2801 48.7443C48.2801 48.4602 48.1538 48.1603 47.9329 47.9235L39.9303 39.8262C39.4883 39.3685 38.7781 39.3369 38.3203 39.8262Z" fill="#42526E"/>
<path d="M62.4465 71.6533L54.444 79.7664C53.9862 80.2557 53.2759 80.2399 52.834 79.7664L44.8314 71.6533C44.6104 71.4323 44.4684 71.1324 44.4684 70.8483C44.4684 70.2169 44.9103 69.775 45.5259 69.775C45.8416 69.775 46.0942 69.8855 46.3151 70.1065L49.8981 73.7684L52.6761 76.8305L52.5657 73.3106V52.2704C52.5657 51.6548 53.0076 51.197 53.639 51.197C54.2703 51.197 54.7123 51.6548 54.7123 52.2704V73.3106L54.6018 76.8305L57.3798 73.7684L60.9628 70.1065C61.1996 69.8855 61.4363 69.775 61.752 69.775C62.3676 69.775 62.8096 70.2169 62.8096 70.8483C62.8096 71.1324 62.6675 71.4323 62.4465 71.6533Z" fill="#42526E"/>
</svg>
