<svg width="12" height="12" viewBox="0 0 12 12" fill="none" xmlns="http://www.w3.org/2000/svg">
<path d="M9.6 7.8V1.8C9.6 1.32261 9.41036 0.864773 9.07279 0.527208C8.73523 0.189642 8.27739 0 7.8 0H1.8C1.32261 0 0.864773 0.189642 0.527208 0.527208C0.189642 0.864773 0 1.32261 0 1.8V7.8C0 8.27739 0.189642 8.73523 0.527208 9.07279C0.864773 9.41036 1.32261 9.6 1.8 9.6H7.8C8.27739 9.6 8.73523 9.41036 9.07279 9.07279C9.41036 8.73523 9.6 8.27739 9.6 7.8ZM1.2 1.8C1.2 1.64087 1.26321 1.48826 1.37574 1.37574C1.48826 1.26321 1.64087 1.2 1.8 1.2H7.8C7.95913 1.2 8.11174 1.26321 8.22426 1.37574C8.33679 1.48826 8.4 1.64087 8.4 1.8V4.416L7.752 3.762C7.46399 3.47393 7.07335 3.31206 6.666 3.312C6.25891 3.31337 5.86875 3.47504 5.58 3.762L5.034 4.308L4.548 3.822C4.21917 3.49844 3.77633 3.31711 3.315 3.31711C2.85367 3.31711 2.41083 3.49844 2.082 3.822L1.2 4.71V1.8ZM1.272 8.07C1.22573 7.98746 1.20097 7.89462 1.2 7.8V6.402L2.928 4.674C2.97873 4.62302 3.03904 4.58257 3.10545 4.55497C3.17187 4.52737 3.24308 4.51316 3.315 4.51316C3.38692 4.51316 3.45813 4.52737 3.52455 4.55497C3.59096 4.58257 3.65127 4.62302 3.702 4.674L4.2 5.16L1.272 8.07ZM6.432 4.614C6.46161 4.58146 6.49776 4.55555 6.53809 4.53797C6.57842 4.52039 6.62201 4.51154 6.666 4.512C6.70999 4.51154 6.75358 4.52039 6.79391 4.53797C6.83424 4.55555 6.87039 4.58146 6.9 4.614L8.4 6.108V7.8C8.4 7.95913 8.33679 8.11174 8.22426 8.22426C8.11174 8.33679 7.95913 8.4 7.8 8.4H2.64L6.432 4.614ZM11.4 2.4C11.2409 2.4 11.0883 2.46321 10.9757 2.57574C10.8632 2.68826 10.8 2.84087 10.8 3V9C10.8 9.47739 10.6104 9.93523 10.2728 10.2728C9.93523 10.6104 9.47739 10.8 9 10.8H3C2.84087 10.8 2.68826 10.8632 2.57574 10.9757C2.46321 11.0883 2.4 11.2409 2.4 11.4C2.4 11.5591 2.46321 11.7117 2.57574 11.8243C2.68826 11.9368 2.84087 12 3 12H9C9.79565 12 10.5587 11.6839 11.1213 11.1213C11.6839 10.5587 12 9.79565 12 9V3C12 2.84087 11.9368 2.68826 11.8243 2.57574C11.7117 2.46321 11.5591 2.4 11.4 2.4Z" fill="#0F62FE"/>
</svg>
