<svg width="12" height="12" viewBox="0 0 12 12" fill="none" xmlns="http://www.w3.org/2000/svg">
<path d="M3.774 5.574C3.71937 5.63106 3.67656 5.69835 3.648 5.772C3.58799 5.91808 3.58799 6.08192 3.648 6.228C3.67656 6.30165 3.71937 6.36894 3.774 6.426L5.574 8.226C5.68698 8.33898 5.84022 8.40245 6 8.40245C6.15978 8.40245 6.31302 8.33898 6.426 8.226C6.53898 8.11302 6.60245 7.95978 6.60245 7.8C6.60245 7.64022 6.53898 7.48698 6.426 7.374L5.646 6.6H7.8C7.95913 6.6 8.11174 6.53678 8.22426 6.42426C8.33678 6.31174 8.4 6.15913 8.4 6C8.4 5.84087 8.33678 5.68826 8.22426 5.57573C8.11174 5.46321 7.95913 5.4 7.8 5.4H5.646L6.426 4.626C6.48224 4.57022 6.52687 4.50386 6.55733 4.43075C6.58779 4.35763 6.60348 4.27921 6.60348 4.2C6.60348 4.12079 6.58779 4.04237 6.55733 3.96925C6.52687 3.89614 6.48224 3.82978 6.426 3.774C6.37022 3.71776 6.30386 3.67313 6.23074 3.64266C6.15763 3.6122 6.07921 3.59652 6 3.59652C5.92079 3.59652 5.84237 3.6122 5.76925 3.64266C5.69614 3.67313 5.62978 3.71776 5.574 3.774L3.774 5.574ZM0 6C0 7.18669 0.351894 8.34672 1.01118 9.33342C1.67047 10.3201 2.60754 11.0891 3.7039 11.5433C4.80025 11.9974 6.00665 12.1162 7.17054 11.8847C8.33443 11.6532 9.40352 11.0818 10.2426 10.2426C11.0818 9.40352 11.6532 8.33443 11.8847 7.17054C12.1162 6.00665 11.9974 4.80025 11.5433 3.7039C11.0891 2.60754 10.3201 1.67047 9.33342 1.01118C8.34672 0.351894 7.18669 0 6 0C5.21207 0 4.43185 0.155195 3.7039 0.456723C2.97594 0.758251 2.31451 1.20021 1.75736 1.75736C0.632141 2.88258 0 4.4087 0 6ZM10.8 6C10.8 6.94935 10.5185 7.87738 9.99105 8.66673C9.46362 9.45609 8.71396 10.0713 7.83688 10.4346C6.95979 10.7979 5.99467 10.893 5.06357 10.7078C4.13246 10.5226 3.27718 10.0654 2.60589 9.39411C1.93459 8.72282 1.47744 7.86754 1.29223 6.93643C1.10702 6.00532 1.20208 5.0402 1.56538 4.16312C1.92868 3.28603 2.54391 2.53638 3.33326 2.00895C4.12262 1.48151 5.05065 1.2 6 1.2C7.27304 1.2 8.49394 1.70571 9.39411 2.60589C10.2943 3.50606 10.8 4.72696 10.8 6Z" fill="#0F62FE"/>
</svg>
