<svg width="12" height="12" viewBox="0 0 12 12" fill="none" xmlns="http://www.w3.org/2000/svg">
<circle cx="6" cy="6" r="5.5" fill="#0F62FE" stroke="white"/>
<path d="M6.90918 6.95551L6.00062 6.04695L5.09206 6.95551" stroke="white" stroke-width="0.5" stroke-linecap="round" stroke-linejoin="round"/>
<path d="M6.00061 8.09119L6.00061 6.04693" stroke="white" stroke-width="0.5" stroke-linecap="round" stroke-linejoin="round"/>
<path d="M8.01758 7.43019C8.21505 7.29132 8.36314 7.09315 8.44035 6.86441C8.51756 6.63568 8.51987 6.3883 8.44696 6.15816C8.37405 5.92803 8.22969 5.72711 8.03485 5.58458C7.84001 5.44204 7.60482 5.3653 7.36341 5.36549H7.07722C7.0089 5.09925 6.88108 4.85198 6.70337 4.64229C6.52566 4.4326 6.3027 4.26596 6.05127 4.15491C5.79984 4.04386 5.5265 3.9913 5.25181 4.00117C4.97713 4.01105 4.70827 4.08312 4.46546 4.21194C4.22266 4.34076 4.01224 4.52299 3.85006 4.7449C3.68787 4.96681 3.57814 5.22262 3.52913 5.49308C3.48011 5.76354 3.49309 6.04159 3.56708 6.3063C3.64108 6.57102 3.77416 6.8155 3.95632 7.02133" stroke="white" stroke-width="0.5" stroke-linecap="round" stroke-linejoin="round"/>
</svg>
