<svg width="12" height="12" viewBox="0 0 12 12" fill="none" xmlns="http://www.w3.org/2000/svg">
<circle cx="6" cy="6" r="6" fill="#F2F4F8"/>
<path d="M8.91714 4.51143C8.89058 4.48465 8.85898 4.46339 8.82416 4.44889C8.78935 4.43438 8.752 4.42691 8.71429 4.42691C8.67657 4.42691 8.63922 4.43438 8.60441 4.44889C8.56959 4.46339 8.53799 4.48465 8.51143 4.51143L8.14286 4.88286V3.28571C8.14286 3.20994 8.11276 3.13727 8.05917 3.08368C8.00559 3.0301 7.93292 3 7.85714 3C7.78137 3 7.70869 3.0301 7.65511 3.08368C7.60153 3.13727 7.57143 3.20994 7.57143 3.28571V4.88286L7.20286 4.51143C7.14906 4.45763 7.07609 4.4274 7 4.4274C6.92391 4.4274 6.85094 4.45763 6.79714 4.51143C6.74334 4.56523 6.71312 4.6382 6.71312 4.71429C6.71312 4.79037 6.74334 4.86334 6.79714 4.91714L7.65429 5.77429C7.68146 5.8003 7.7135 5.82069 7.74857 5.83429C7.78277 5.8494 7.81975 5.85721 7.85714 5.85721C7.89453 5.85721 7.93151 5.8494 7.96571 5.83429C8.00079 5.82069 8.03283 5.8003 8.06 5.77429L8.91714 4.91714C8.94392 4.89058 8.96518 4.85898 8.97968 4.82416C8.99419 4.78935 9.00166 4.752 9.00166 4.71429C9.00166 4.67657 8.99419 4.63922 8.97968 4.60441C8.96518 4.56959 8.94392 4.53799 8.91714 4.51143ZM7.85714 6.42857C7.78137 6.42857 7.70869 6.45867 7.65511 6.51226C7.60153 6.56584 7.57143 6.63851 7.57143 6.71429V6.82286L7.14857 6.4C6.99926 6.25187 6.79746 6.16875 6.58714 6.16875C6.37682 6.16875 6.17502 6.25187 6.02571 6.4L5.82571 6.6L5.11714 5.89143C4.96575 5.74732 4.76473 5.66694 4.55571 5.66694C4.3467 5.66694 4.14568 5.74732 3.99429 5.89143L3.57143 6.31429V4.71429C3.57143 4.63851 3.60153 4.56584 3.65511 4.51226C3.70869 4.45867 3.78137 4.42857 3.85714 4.42857H6.14286C6.21863 4.42857 6.29131 4.39847 6.34489 4.34489C6.39847 4.29131 6.42857 4.21863 6.42857 4.14286C6.42857 4.06708 6.39847 3.99441 6.34489 3.94083C6.29131 3.88724 6.21863 3.85714 6.14286 3.85714H3.85714C3.62981 3.85714 3.4118 3.94745 3.25105 4.10819C3.09031 4.26894 3 4.48696 3 4.71429V8.14286C3 8.37019 3.09031 8.5882 3.25105 8.74895C3.4118 8.90969 3.62981 9 3.85714 9H7.28571C7.51304 9 7.73106 8.90969 7.89181 8.74895C8.05255 8.5882 8.14286 8.37019 8.14286 8.14286V6.71429C8.14286 6.63851 8.11276 6.56584 8.05917 6.51226C8.00559 6.45867 7.93292 6.42857 7.85714 6.42857ZM3.85714 8.42857C3.78137 8.42857 3.70869 8.39847 3.65511 8.34489C3.60153 8.29131 3.57143 8.21863 3.57143 8.14286V7.12286L4.4 6.29429C4.44197 6.25429 4.49773 6.23197 4.55571 6.23197C4.6137 6.23197 4.66945 6.25429 4.71143 6.29429L5.61714 7.2L6.84571 8.42857H3.85714ZM7.57143 8.14286C7.57102 8.19755 7.55298 8.25065 7.52 8.29429L6.23143 7L6.43143 6.8C6.45191 6.77909 6.47636 6.76249 6.50335 6.75115C6.53033 6.73981 6.5593 6.73397 6.58857 6.73397C6.61784 6.73397 6.64681 6.73981 6.6738 6.75115C6.70078 6.76249 6.72523 6.77909 6.74571 6.8L7.57143 7.63143V8.14286Z" fill="#0F62FE"/>
</svg>
