<svg width="8" height="8" viewBox="0 0 8 8" fill="none" xmlns="http://www.w3.org/2000/svg">
<path d="M4.92259 6.11468L4.40625 6.63502V4.39756C4.40625 4.2914 4.36408 4.18959 4.28902 4.11453C4.21395 4.03946 4.11214 3.99729 4.00599 3.99729C3.89983 3.99729 3.79803 4.03946 3.72296 4.11453C3.6479 4.18959 3.60573 4.2914 3.60573 4.39756V6.63502L3.08939 6.11468C3.05207 6.07736 3.00777 6.04775 2.95901 6.02756C2.91024 6.00736 2.85798 5.99696 2.80521 5.99696C2.75243 5.99696 2.70017 6.00736 2.65141 6.02756C2.60264 6.04775 2.55834 6.07736 2.52102 6.11468C2.4837 6.152 2.4541 6.1963 2.4339 6.24506C2.4137 6.29382 2.40331 6.34608 2.40331 6.39886C2.40331 6.45164 2.4137 6.5039 2.4339 6.55266C2.4541 6.60142 2.4837 6.64573 2.52102 6.68305L3.7218 7.88383C3.75987 7.92027 3.80476 7.94884 3.85389 7.96789C3.9018 7.98906 3.95361 8 4.00599 8C4.05837 8 4.11018 7.98906 4.15809 7.96789C4.20722 7.94884 4.25211 7.92027 4.29017 7.88383L5.49096 6.68305C5.56633 6.60768 5.60867 6.50545 5.60867 6.39886C5.60867 6.29227 5.56633 6.19005 5.49096 6.11468C5.41559 6.03931 5.31336 5.99696 5.20677 5.99696C5.10018 5.99696 4.99796 6.03931 4.92259 6.11468ZM6.57567 1.68378C6.3311 1.12182 5.90903 0.655543 5.37411 0.356408C4.8392 0.0572726 4.22095 -0.0582205 3.61412 0.0276263C3.00729 0.113473 2.44534 0.395924 2.01439 0.831697C1.58344 1.26747 1.30726 1.83253 1.22818 2.44028C0.846561 2.53167 0.511797 2.76002 0.287457 3.08197C0.0631168 3.40392 -0.0351752 3.79705 0.0112469 4.1867C0.057669 4.57635 0.245572 4.93539 0.539273 5.19562C0.832974 5.45585 1.21202 5.59917 1.60442 5.59834C1.71058 5.59834 1.81239 5.55617 1.88745 5.48111C1.96251 5.40604 2.00468 5.30423 2.00468 5.19808C2.00468 5.09192 1.96251 4.99011 1.88745 4.91505C1.81239 4.83999 1.71058 4.79782 1.60442 4.79782C1.39211 4.79782 1.18849 4.71348 1.03837 4.56335C0.888239 4.41322 0.803899 4.20961 0.803899 3.99729C0.803899 3.78498 0.888239 3.58137 1.03837 3.43124C1.18849 3.28111 1.39211 3.19677 1.60442 3.19677C1.71058 3.19677 1.81239 3.1546 1.88745 3.07954C1.96251 3.00447 2.00468 2.90267 2.00468 2.79651C2.00571 2.32311 2.17451 1.8654 2.4811 1.5047C2.7877 1.144 3.21223 0.903655 3.67928 0.826373C4.14632 0.749092 4.62565 0.839875 5.03209 1.08259C5.43853 1.32531 5.74577 1.70425 5.89922 2.15209C5.9221 2.22087 5.96323 2.28215 6.01822 2.32938C6.0732 2.37661 6.13998 2.40802 6.21143 2.42026C6.47803 2.47065 6.71971 2.60983 6.89709 2.81514C7.07447 3.02044 7.17708 3.27977 7.18823 3.55086C7.19937 3.82195 7.11837 4.08882 6.95844 4.30799C6.7985 4.52716 6.56906 4.6857 6.30749 4.75779C6.25651 4.77093 6.20861 4.79399 6.16653 4.82564C6.12445 4.85729 6.08902 4.89692 6.06226 4.94226C6.0355 4.98761 6.01793 5.03778 6.01056 5.08991C6.00319 5.14205 6.00616 5.19512 6.0193 5.24611C6.03244 5.2971 6.0555 5.34499 6.08715 5.38707C6.1188 5.42915 6.15843 5.46458 6.20378 5.49134C6.24912 5.5181 6.29929 5.53567 6.35143 5.54304C6.40356 5.55041 6.45664 5.54744 6.50762 5.5343C6.92885 5.42299 7.30225 5.17726 7.57112 4.83443C7.83999 4.49159 7.98963 4.07038 7.99733 3.63476C8.00503 3.19914 7.87036 2.77291 7.61377 2.42079C7.35719 2.06867 6.9927 1.80991 6.57567 1.68378Z" fill="white"/>
</svg>
