<svg width="9" height="8" viewBox="0 0 9 8" fill="none" xmlns="http://www.w3.org/2000/svg">
<path d="M7.66667 6.33333C7.66667 6.51014 7.59643 6.67971 7.4714 6.80474C7.34638 6.92976 7.17681 7 7 7H1.66667C1.48986 7 1.32029 6.92976 1.19526 6.80474C1.07024 6.67971 1 6.51014 1 6.33333V1.66667C1 1.48986 1.07024 1.32029 1.19526 1.19526C1.32029 1.07024 1.48986 1 1.66667 1H3.33333L4 2H7C7.17681 2 7.34638 2.07024 7.4714 2.19526C7.59643 2.32029 7.66667 2.48986 7.66667 2.66667V6.33333Z" stroke="#0F62FE" stroke-width="0.8" stroke-linecap="round" stroke-linejoin="round"/>
<path d="M4.33325 3.66675V5.66675" stroke="#0F62FE" stroke-width="0.8" stroke-linecap="round" stroke-linejoin="round"/>
<path d="M3.33325 4.66675H5.33325" stroke="#0F62FE" stroke-width="0.8" stroke-linecap="round" stroke-linejoin="round"/>
</svg>
