<svg width="11" height="12" viewBox="0 0 11 12" fill="none" xmlns="http://www.w3.org/2000/svg">
<path d="M10.1879 3.61004L6.59217 0.457811C6.26255 0.162991 5.83583 0 5.3936 0C4.95137 0 4.52466 0.162991 4.19504 0.457811L0.59934 3.61004C0.408989 3.78028 0.257089 3.98912 0.153756 4.22265C0.0504228 4.45619 -0.00197317 4.70905 5.68085e-05 4.96442V10.2022C5.68085e-05 10.679 0.189473 11.1363 0.526635 11.4734C0.863797 11.8106 1.32109 12 1.79791 12H8.9893C9.46612 12 9.92341 11.8106 10.2606 11.4734C10.5977 11.1363 10.7871 10.679 10.7871 10.2022V4.95843C10.7883 4.70407 10.7355 4.45236 10.6322 4.21992C10.5289 3.98748 10.3775 3.77961 10.1879 3.61004ZM6.59217 10.8014H4.19504V7.80502C4.19504 7.64608 4.25818 7.49365 4.37056 7.38126C4.48295 7.26888 4.63538 7.20574 4.79432 7.20574H5.99289C6.15183 7.20574 6.30426 7.26888 6.41664 7.38126C6.52903 7.49365 6.59217 7.64608 6.59217 7.80502V10.8014ZM9.58858 10.2022C9.58858 10.3611 9.52544 10.5135 9.41306 10.6259C9.30067 10.7383 9.14824 10.8014 8.9893 10.8014H7.79073V7.80502C7.79073 7.3282 7.60132 6.87091 7.26416 6.53375C6.92699 6.19659 6.46971 6.00717 5.99289 6.00717H4.79432C4.3175 6.00717 3.86021 6.19659 3.52305 6.53375C3.18589 6.87091 2.99647 7.3282 2.99647 7.80502V10.8014H1.79791C1.63897 10.8014 1.48654 10.7383 1.37415 10.6259C1.26176 10.5135 1.19862 10.3611 1.19862 10.2022V4.95843C1.19873 4.87334 1.21696 4.78925 1.25209 4.71175C1.28722 4.63425 1.33845 4.56512 1.40238 4.50896L4.99808 1.36273C5.10744 1.26665 5.24803 1.21367 5.3936 1.21367C5.53917 1.21367 5.67977 1.26665 5.78913 1.36273L9.38483 4.50896C9.44875 4.56512 9.49998 4.63425 9.53512 4.71175C9.57025 4.78925 9.58848 4.87334 9.58858 4.95843V10.2022Z" fill="#0F62FE"/>
</svg>
