<?xml version="1.0" ?><svg enable-background="new 0 0 40 40" id="Слой_1" version="1.1" viewBox="0 0 40 40" xml:space="preserve" xmlns="http://www.w3.org/2000/svg" xmlns:xlink="http://www.w3.org/1999/xlink"><g><path d="M27.9,23.6c-0.3,0-0.5-0.1-0.7-0.3L19.9,16l-7.3,7.3c-0.4,0.4-1,0.4-1.4,0s-0.4-1,0-1.4l8-8c0.4-0.4,1-0.4,1.4,0l8,8   c0.4,0.4,0.4,1,0,1.4C28.4,23.5,28.2,23.6,27.9,23.6z"/></g><g><path d="M20,40C9,40,0,31,0,20S9,0,20,0c4.5,0,8.7,1.5,12.3,4.2c0.4,0.3,0.5,1,0.2,1.4c-0.3,0.4-1,0.5-1.4,0.2C27.9,3.3,24,2,20,2   C10.1,2,2,10.1,2,20s8.1,18,18,18s18-8.1,18-18c0-3.2-0.9-6.4-2.5-9.2c-0.3-0.5-0.1-1.1,0.3-1.4c0.5-0.3,1.1-0.1,1.4,0.3   C39,12.9,40,16.4,40,20C40,31,31,40,20,40z"/></g></svg>