<svg width="10" height="8" viewBox="0 0 10 8" fill="none" xmlns="http://www.w3.org/2000/svg">
<path d="M6.45468 5.72882L5.00099 4.27513L3.54729 5.72882" stroke="#0F62FE" stroke-width="0.8" stroke-linecap="round" stroke-linejoin="round"/>
<path d="M5.00101 7.5459L5.00101 4.27509" stroke="#0F62FE" stroke-width="0.8" stroke-linecap="round" stroke-linejoin="round"/>
<path d="M8.22812 6.4883C8.54408 6.26612 8.78102 5.94903 8.90456 5.58306C9.02809 5.21709 9.0318 4.82128 8.91514 4.45306C8.79847 4.08484 8.56751 3.76338 8.25577 3.53532C7.94402 3.30726 7.56772 3.18447 7.18146 3.18478H6.72355C6.61424 2.7588 6.40973 2.36317 6.12539 2.02766C5.84106 1.69216 5.48433 1.42554 5.08204 1.24786C4.67975 1.07018 4.2424 0.986073 3.8029 1.00188C3.36341 1.01768 2.93322 1.13298 2.54474 1.3391C2.15625 1.54522 1.81959 1.83678 1.56009 2.19184C1.30059 2.5469 1.12502 2.9562 1.0466 3.38893C0.968177 3.82166 0.988943 4.26654 1.10734 4.69008C1.22573 5.11363 1.43866 5.50479 1.73011 5.83414" stroke="#0F62FE" stroke-width="0.8" stroke-linecap="round" stroke-linejoin="round"/>
</svg>
