<svg width="12" height="12" viewBox="0 0 12 12" fill="none" xmlns="http://www.w3.org/2000/svg">
<circle cx="6" cy="6" r="6" fill="#F2F4F8"/>
<path d="M8.42642 7.86431H6.66141C6.61876 7.74453 6.54999 7.63574 6.46009 7.54584C6.37018 7.45593 6.26139 7.38716 6.14161 7.34452V6.43631H7.04697C7.34938 6.44624 7.64494 6.34497 7.8777 6.15165C8.11046 5.95832 8.26427 5.68638 8.31002 5.38728C8.35576 5.08819 8.29027 4.7827 8.12593 4.52864C7.96159 4.27459 7.70981 4.0896 7.41825 4.0087C7.26552 3.67028 7.007 3.39063 6.68161 3.21182C6.35622 3.03301 5.98156 2.96472 5.614 3.01722C5.24645 3.06973 4.9059 3.2402 4.64359 3.50296C4.38128 3.76573 4.21141 4.10658 4.15954 4.47423C3.92712 4.5394 3.72613 4.68649 3.5937 4.88831C3.46127 5.09013 3.40634 5.33305 3.43907 5.57221C3.47179 5.81138 3.58995 6.03062 3.77173 6.18945C3.9535 6.34827 4.18662 6.43596 4.42801 6.43631H5.57041V7.34452C5.45063 7.38716 5.34184 7.45593 5.25194 7.54584C5.16203 7.63574 5.09326 7.74453 5.05062 7.86431H3.2856C3.20986 7.86431 3.13721 7.8944 3.08365 7.94796C3.03009 8.00152 3 8.07417 3 8.14991C3 8.22566 3.03009 8.2983 3.08365 8.35187C3.13721 8.40543 3.20986 8.43552 3.2856 8.43552H5.05062C5.11065 8.60092 5.22016 8.74383 5.36425 8.84483C5.50835 8.94582 5.68005 9 5.85601 9C6.03198 9 6.20367 8.94582 6.34777 8.84483C6.49187 8.74383 6.60137 8.60092 6.66141 8.43552H8.42642C8.50217 8.43552 8.57481 8.40543 8.62837 8.35187C8.68193 8.2983 8.71202 8.22566 8.71202 8.14991C8.71202 8.07417 8.68193 8.00152 8.62837 7.94796C8.57481 7.8944 8.50217 7.86431 8.42642 7.86431ZM4.42801 5.8651C4.31439 5.8651 4.20542 5.81997 4.12508 5.73963C4.04474 5.65929 3.9996 5.55032 3.9996 5.4367C3.9996 5.32308 4.04474 5.21412 4.12508 5.13378C4.20542 5.05344 4.31439 5.0083 4.42801 5.0083C4.50375 5.0083 4.5764 4.97821 4.62996 4.92465C4.68352 4.87109 4.71361 4.79845 4.71361 4.7227C4.71286 4.45153 4.8086 4.18894 4.9837 3.98188C5.1588 3.77482 5.40184 3.6368 5.66937 3.5925C5.9369 3.54819 6.21146 3.6005 6.44396 3.74006C6.67646 3.87962 6.85174 4.09734 6.93844 4.35427C6.95477 4.40335 6.98411 4.44708 7.02335 4.48078C7.06258 4.51448 7.11023 4.53689 7.16121 4.54563C7.3158 4.57141 7.45616 4.65138 7.55716 4.77121C7.65816 4.89105 7.7132 5.04293 7.71242 5.19965C7.71167 5.37591 7.64132 5.54473 7.51668 5.66937C7.39205 5.794 7.22323 5.86435 7.04697 5.8651H4.42801ZM5.85601 8.43552C5.79953 8.43552 5.74431 8.41877 5.69734 8.38738C5.65037 8.356 5.61377 8.3114 5.59215 8.25921C5.57053 8.20702 5.56488 8.1496 5.5759 8.0942C5.58692 8.03879 5.61412 7.98791 5.65406 7.94796C5.694 7.90802 5.74489 7.88082 5.80029 7.8698C5.8557 7.85878 5.91312 7.86444 5.96531 7.88605C6.01749 7.90767 6.0621 7.94428 6.09348 7.99124C6.12486 8.03821 6.14161 8.09343 6.14161 8.14991C6.14161 8.22566 6.11152 8.2983 6.05796 8.35187C6.0044 8.40543 5.93176 8.43552 5.85601 8.43552Z" fill="#0F62FE"/>
</svg>
