<svg width="6" height="6" viewBox="0 0 6 6" fill="none" xmlns="http://www.w3.org/2000/svg">
<path d="M3.90918 3.95551L3.00062 3.04695L2.09206 3.95551" stroke="white" stroke-width="0.5" stroke-linecap="round" stroke-linejoin="round"/>
<path d="M3.00061 5.09119L3.00061 3.04693" stroke="white" stroke-width="0.5" stroke-linecap="round" stroke-linejoin="round"/>
<path d="M5.01758 4.43019C5.21505 4.29132 5.36314 4.09315 5.44035 3.86441C5.51756 3.63568 5.51987 3.3883 5.44696 3.15816C5.37405 2.92803 5.22969 2.72711 5.03485 2.58458C4.84001 2.44204 4.60482 2.3653 4.36341 2.36549H4.07722C4.0089 2.09925 3.88108 1.85198 3.70337 1.64229C3.52566 1.4326 3.3027 1.26596 3.05127 1.15491C2.79984 1.04386 2.5265 0.991296 2.25181 1.00117C1.97713 1.01105 1.70827 1.08312 1.46546 1.21194C1.22266 1.34076 1.01224 1.52299 0.850057 1.7449C0.687871 1.96681 0.57814 2.22262 0.529125 2.49308C0.480111 2.76354 0.49309 3.04159 0.567085 3.3063C0.64108 3.57102 0.774163 3.8155 0.956316 4.02133" stroke="white" stroke-width="0.5" stroke-linecap="round" stroke-linejoin="round"/>
</svg>
