<svg width="12" height="12" viewBox="0 0 12 12" fill="none" xmlns="http://www.w3.org/2000/svg">
<circle cx="6" cy="6" r="6" fill="#F2F4F8"/>
<path d="M7.8583 6.42796C7.7825 6.42796 7.70981 6.45807 7.65622 6.51166C7.60262 6.56526 7.57251 6.63795 7.57251 6.71374V6.82234L7.14956 6.39938C7.00021 6.25122 6.79837 6.16808 6.588 6.16808C6.37762 6.16808 6.17578 6.25122 6.02643 6.39938L5.82639 6.59943L5.11765 5.89069C4.96622 5.74654 4.76515 5.66615 4.55608 5.66615C4.34702 5.66615 4.14595 5.74654 3.99452 5.89069L3.57156 6.31365V4.71327C3.57156 4.63747 3.60167 4.56478 3.65527 4.51119C3.70886 4.45759 3.78155 4.42749 3.85735 4.42749H5.85782C5.93362 4.42749 6.00631 4.39738 6.0599 4.34378C6.11349 4.29019 6.1436 4.2175 6.1436 4.1417C6.1436 4.06591 6.11349 3.99322 6.0599 3.93963C6.00631 3.88603 5.93362 3.85592 5.85782 3.85592H3.85735C3.62996 3.85592 3.41189 3.94625 3.25111 4.10703C3.09033 4.26782 3 4.48589 3 4.71327V8.14265C3 8.37004 3.09033 8.58811 3.25111 8.74889C3.41189 8.90967 3.62996 9 3.85735 9H7.28673C7.51411 9 7.73218 8.90967 7.89297 8.74889C8.05375 8.58811 8.14408 8.37004 8.14408 8.14265V6.71374C8.14408 6.63795 8.11397 6.56526 8.06038 6.51166C8.00678 6.45807 7.93409 6.42796 7.8583 6.42796ZM3.85735 8.42844C3.78155 8.42844 3.70886 8.39833 3.65527 8.34473C3.60167 8.29114 3.57156 8.21845 3.57156 8.14265V7.12241L4.40033 6.29364C4.44232 6.25363 4.49809 6.23132 4.55608 6.23132C4.61408 6.23132 4.66985 6.25363 4.71184 6.29364L5.61776 7.19957L6.84663 8.42844H3.85735ZM7.57251 8.14265C7.5721 8.19736 7.55406 8.25048 7.52107 8.29412L6.2322 6.99952L6.43224 6.79948C6.45273 6.77857 6.47719 6.76195 6.50418 6.75061C6.53117 6.73927 6.56015 6.73343 6.58942 6.73343C6.6187 6.73343 6.64768 6.73927 6.67467 6.75061C6.70166 6.76195 6.72612 6.77857 6.7466 6.79948L7.57251 7.6311V8.14265ZM8.91855 3.9388L8.0612 3.08145C8.03402 3.05543 8.00197 3.03504 7.96689 3.02144C7.89732 2.99285 7.81928 2.99285 7.7497 3.02144C7.71462 3.03504 7.68257 3.05543 7.65539 3.08145L6.79804 3.9388C6.7714 3.96544 6.75026 3.99708 6.73584 4.03189C6.72142 4.06671 6.714 4.10402 6.714 4.1417C6.714 4.21781 6.74423 4.29079 6.79804 4.34461C6.85186 4.39842 6.92485 4.42865 7.00095 4.42865C7.07705 4.42865 7.15004 4.39842 7.20386 4.34461L7.57251 3.97309V5.57061C7.57251 5.64641 7.60262 5.7191 7.65622 5.77269C7.70981 5.82629 7.7825 5.8564 7.8583 5.8564C7.93409 5.8564 8.00678 5.82629 8.06038 5.77269C8.11397 5.7191 8.14408 5.64641 8.14408 5.57061V3.97309L8.51274 4.34461C8.53931 4.37139 8.57091 4.39266 8.60574 4.40716C8.64056 4.42167 8.67792 4.42914 8.71564 4.42914C8.75337 4.42914 8.79072 4.42167 8.82555 4.40716C8.86037 4.39266 8.89198 4.37139 8.91855 4.34461C8.94533 4.31804 8.9666 4.28643 8.9811 4.25161C8.99561 4.21678 9.00308 4.17943 9.00308 4.1417C9.00308 4.10398 8.99561 4.06662 8.9811 4.0318C8.9666 3.99697 8.94533 3.96537 8.91855 3.9388Z" fill="#0F62FE"/>
</svg>
