<svg width="8" height="7" viewBox="0 0 8 7" fill="none" xmlns="http://www.w3.org/2000/svg">
<path d="M6.57761 1.68428C6.33297 1.12215 5.91077 0.655737 5.3757 0.356513C4.84062 0.0572897 4.2222 -0.0582377 3.61519 0.0276344C3.00817 0.113507 2.44606 0.396041 2.01499 0.831943C1.58391 1.26784 1.30765 1.83307 1.22854 2.441C0.846811 2.53241 0.511948 2.76083 0.287542 3.08288C0.0631354 3.40493 -0.0351856 3.79817 0.0112502 4.18794C0.057686 4.5777 0.245645 4.93684 0.539432 5.19715C0.833219 5.45746 1.21237 5.60082 1.60489 5.59999C1.71108 5.59999 1.81292 5.55781 1.88801 5.48272C1.96309 5.40764 2.00527 5.3058 2.00527 5.19961C2.00527 5.09342 1.96309 4.99159 1.88801 4.9165C1.81292 4.84141 1.71108 4.79923 1.60489 4.79923C1.39252 4.79923 1.18884 4.71487 1.03867 4.56469C0.888501 4.41452 0.804136 4.21085 0.804136 3.99847C0.804136 3.7861 0.888501 3.58242 1.03867 3.43225C1.18884 3.28208 1.39252 3.19771 1.60489 3.19771C1.71108 3.19771 1.81292 3.15553 1.88801 3.08045C1.96309 3.00536 2.00527 2.90352 2.00527 2.79734C2.0063 2.3238 2.17515 1.86595 2.48183 1.50514C2.78852 1.14433 3.21317 0.903921 3.68036 0.826617C4.14755 0.749313 4.62701 0.840123 5.03357 1.08291C5.44013 1.3257 5.74746 1.70476 5.90097 2.15272C5.92385 2.22153 5.96499 2.28282 6.01999 2.33007C6.075 2.37731 6.1418 2.40873 6.21326 2.42098C6.47994 2.47137 6.72169 2.6106 6.89912 2.81597C7.07655 3.02133 7.1792 3.28074 7.19035 3.55191C7.20149 3.82308 7.12047 4.09003 6.96049 4.30926C6.80051 4.52849 6.571 4.68709 6.30935 4.75919C6.20635 4.78574 6.11811 4.85212 6.06405 4.94372C6.00999 5.03533 5.99453 5.14466 6.02108 5.24766C6.04763 5.35066 6.114 5.4389 6.20561 5.49296C6.29721 5.54702 6.40654 5.56248 6.50954 5.53593C6.9309 5.42459 7.30441 5.17879 7.57335 4.83585C7.8423 4.49292 7.99199 4.07159 7.99969 3.63584C8.00739 3.20009 7.87268 2.77373 7.61602 2.42151C7.35936 2.06928 6.99476 1.81044 6.57761 1.68428ZM4.29144 2.51307C4.25336 2.47661 4.20846 2.44804 4.15932 2.42899C4.06184 2.38894 3.9525 2.38894 3.85503 2.42899C3.80588 2.44804 3.76098 2.47661 3.7229 2.51307L2.52176 3.7142C2.44637 3.7896 2.40402 3.89185 2.40402 3.99847C2.40402 4.10509 2.44637 4.20735 2.52176 4.28274C2.59716 4.35814 2.69941 4.40049 2.80603 4.40049C2.91265 4.40049 3.01491 4.35814 3.0903 4.28274L3.60679 3.76225V6.00037C3.60679 6.10656 3.64897 6.2084 3.72406 6.28348C3.79915 6.35857 3.90098 6.40075 4.00717 6.40075C4.11336 6.40075 4.2152 6.35857 4.29028 6.28348C4.36537 6.2084 4.40755 6.10656 4.40755 6.00037V3.76225L4.92404 4.28274C4.96126 4.32027 5.00554 4.35006 5.05433 4.37038C5.10312 4.39071 5.15545 4.40117 5.20831 4.40117C5.26116 4.40117 5.3135 4.39071 5.36229 4.37038C5.41108 4.35006 5.45536 4.32027 5.49258 4.28274C5.53011 4.24552 5.55989 4.20124 5.58022 4.15245C5.60054 4.10366 5.61101 4.05133 5.61101 3.99847C5.61101 3.94562 5.60054 3.89329 5.58022 3.8445C5.55989 3.79571 5.53011 3.75142 5.49258 3.7142L4.29144 2.51307Z" fill="white"/>
</svg>
