<svg width="56" height="56" viewBox="0 0 49 49" fill="none" xmlns="http://www.w3.org/2000/svg">
<circle cx="24" cy="24.5" r="24" fill="#0F62FE"/>
<path d="M31.3143 22.6715H25.8286V17.1857C25.8286 16.7008 25.636 16.2357 25.293 15.8928C24.9501 15.5498 24.485 15.3572 24 15.3572C23.5151 15.3572 23.05 15.5498 22.707 15.8928C22.3641 16.2357 22.1715 16.7008 22.1715 17.1857V22.6715H16.6857C16.2008 22.6715 15.7357 22.8641 15.3928 23.207C15.0498 23.55 14.8572 24.0151 14.8572 24.5C14.8572 24.985 15.0498 25.4501 15.3928 25.793C15.7357 26.136 16.2008 26.3286 16.6857 26.3286H22.1715V31.8143C22.1715 32.2993 22.3641 32.7644 22.707 33.1073C23.05 33.4502 23.5151 33.6429 24 33.6429C24.485 33.6429 24.9501 33.4502 25.293 33.1073C25.636 32.7644 25.8286 32.2993 25.8286 31.8143V26.3286H31.3143C31.7993 26.3286 32.2644 26.136 32.6073 25.793C32.9502 25.4501 33.1429 24.985 33.1429 24.5C33.1429 24.0151 32.9502 23.55 32.6073 23.207C32.2644 22.8641 31.7993 22.6715 31.3143 22.6715Z" fill="white"/>
</svg>
