<svg width="24" height="21" viewBox="0 0 24 21" fill="none" xmlns="http://www.w3.org/2000/svg">
  <path d="M0.000244141 2.24999C0.000244141 1.00735 1.0076 0 2.25024 0H6.00004C8.52635 0 8.84214 2.24999 12 2.24999H21.7502C22.9928 2.24999 24.0001 3.25735 24.0001 4.49998V17.9999C24.0001 19.2426 22.9928 20.2499 21.7502 20.2499H2.25024C1.0076 20.2499 0.000244141 19.2426 0.000244141 17.9999V2.24999Z" fill="#52AFE0"/>
  <path d="M0.000244141 2.24999C0.000244141 1.00735 1.0076 0 2.25024 0H6.00004C8.52635 0 8.84214 2.24999 12 2.24999H21.7502C22.9928 2.24999 24.0001 3.25735 24.0001 4.49998V17.9999C24.0001 19.2426 22.9928 20.2499 21.7502 20.2499H2.25024C1.0076 20.2499 0.000244141 19.2426 0.000244141 17.9999V2.24999Z" fill="url(#paint0_linear)" fill-opacity="0.2"/>
  <g filter="url(#filter0_i)">
  <path d="M0 17.9999V7.5C0 6.25736 1.00735 5.25 2.24999 5.25L21.7499 5.25C22.9925 5.25 23.9999 6.25736 23.9999 7.49999V17.9999C23.9999 19.2426 22.9925 20.2499 21.7499 20.2499H2.24999C1.00736 20.2499 0 19.2426 0 17.9999Z" fill="#73D0FA"/>
  <path d="M0 17.9999V7.5C0 6.25736 1.00735 5.25 2.24999 5.25L21.7499 5.25C22.9925 5.25 23.9999 6.25736 23.9999 7.49999V17.9999C23.9999 19.2426 22.9925 20.2499 21.7499 20.2499H2.24999C1.00736 20.2499 0 19.2426 0 17.9999Z" fill="url(#paint1_radial)" fill-opacity="0.16"/>
  </g>
  <defs>
  <filter id="filter0_i" x="0" y="1.50003" width="23.9999" height="18.7499" filterUnits="userSpaceOnUse" color-interpolation-filters="sRGB">
  <feFlood flood-opacity="0" result="BackgroundImageFix"/>
  <feBlend mode="normal" in="SourceGraphic" in2="BackgroundImageFix" result="shape"/>
  <feColorMatrix in="SourceAlpha" type="matrix" values="0 0 0 0 0 0 0 0 0 0 0 0 0 0 0 0 0 0 127 0" result="hardAlpha"/>
  <feOffset dy="-3.74997"/>
  <feGaussianBlur stdDeviation="1.87499"/>
  <feComposite in2="hardAlpha" operator="arithmetic" k2="-1" k3="1"/>
  <feColorMatrix type="matrix" values="0 0 0 0 0.321569 0 0 0 0 0.686275 0 0 0 0 0.878431 0 0 0 0.32 0"/>
  <feBlend mode="normal" in2="shape" result="effect1_innerShadow"/>
  </filter>
  <linearGradient id="paint0_linear" x1="12" y1="3.74999" x2="12" y2="8.24997" gradientUnits="userSpaceOnUse">
  <stop stop-color="#52AFE0"/>
  <stop offset="1" stop-color="#00529E" stop-opacity="0.1"/>
  </linearGradient>
  <radialGradient id="paint1_radial" cx="0" cy="0" r="1" gradientUnits="userSpaceOnUse" gradientTransform="translate(12 8.24999) rotate(90) scale(8.99997 14.4)">
  <stop stop-color="white"/>
  <stop offset="1" stop-color="white" stop-opacity="0"/>
  </radialGradient>
  </defs>
</svg>
  