<svg width="120" height="12" viewBox="0 0 120 12" fill="none" xmlns="http://www.w3.org/2000/svg">
<path d="M2.59927 12H0V0H2.59927V12Z" fill="#091E42"/>
<path d="M19.1984 8.26286V0H21.7799V12H19.1272L12.8604 3.72V12H10.2612V0H12.9139L19.1984 8.26286Z" fill="#091E42"/>
<path d="M28.48 0H37.3994V2.21143H34.2304V12H31.6489V2.21143H28.48V0Z" fill="#091E42"/>
<path d="M51.7392 0V2.21143H46.6831V4.78286H51.0448V6.99429H46.6831V9.78857H51.7392V12H44.0838V0H51.7392Z" fill="#091E42"/>
<path d="M69.081 12H65.9299L62.4404 7.06286H61.6037V12H59.0044V0H64.0249C65.3067 0 66.2859 0.331429 66.9624 0.994286C67.6508 1.65714 67.995 2.52571 67.995 3.6C67.995 5.34857 67.093 6.41714 65.2889 6.80571L69.081 12ZM61.6037 5.02286H63.651C64.2207 5.02286 64.654 4.91429 64.9507 4.69714C65.2593 4.46857 65.4136 4.10286 65.4136 3.6C65.4136 3.10857 65.2593 2.75429 64.9507 2.53714C64.654 2.32 64.2207 2.21143 63.651 2.21143H61.6037V5.02286Z" fill="#091E42"/>
<path d="M84.7399 8.26286V0H87.3214V12H84.6687L78.402 3.72V12H75.8027V0H78.4554L84.7399 8.26286Z" fill="#091E42"/>
<path d="M101.072 5.81143L105.38 12H102.389L99.6651 7.88571L96.959 12H93.9859L98.2765 5.82857L94.2173 0H97.1727L99.6651 3.75429L102.175 0H105.148L101.072 5.81143Z" fill="#091E42"/>
<path d="M111.081 0H120V2.21143H116.831V12H114.25V2.21143H111.081V0Z" fill="#091E42"/>
</svg>
