<?xml version="1.0" encoding="UTF-8"?>
<svg version="1.1" xmlns="http://www.w3.org/2000/svg" width="162" height="142">
<path d="M0 0 C12.54318878 9.04617288 19.99080061 19.99526643 23.953125 35.01171875 C26.27334623 51.06577475 24.01869565 66.37907863 14.33984375 79.6875 C4.22642038 92.80334594 -9.31741806 100.41340888 -25.66015625 102.6875 C-31.09531394 102.98401096 -36.52363305 102.99394818 -41.96484375 102.98828125 C-43.53606273 102.99217832 -45.10728068 102.99651503 -46.67849731 103.00126648 C-49.95806303 103.0086893 -53.23752101 103.00846626 -56.51708984 103.00317383 C-60.6881655 102.9973849 -64.85879628 103.01431537 -69.02979851 103.0375185 C-72.27119458 103.05235898 -75.51248603 103.05311363 -78.75391006 103.05000877 C-80.29026291 103.05051683 -81.82662243 103.05565598 -83.36294174 103.06582069 C-97.67435169 103.14890757 -111.00056444 101.77777608 -121.91796875 91.578125 C-126.15820512 87.04060268 -129.37369959 82.46381156 -131.66015625 76.6875 C-132.07265625 75.65625 -132.48515625 74.625 -132.91015625 73.5625 C-135.08731323 62.31385562 -134.12537388 51.47787969 -128.375 41.4453125 C-121.78846538 32.01500945 -113.41656919 25.80257559 -102.234375 23.1015625 C-95.38928865 22.00053192 -88.07472625 21.83658 -81.66015625 24.6875 C-81.38171875 23.4809375 -81.38171875 23.4809375 -81.09765625 22.25 C-75.96656628 9.5338205 -64.05471871 -0.07573654 -51.87109375 -5.5703125 C-34.996131 -11.80576385 -15.04186015 -9.75161112 0 0 Z M-61.5 21.78515625 C-65.44120431 27.31086509 -70.66015625 35.78055616 -70.66015625 42.6875 C-75.58077238 43.76108897 -78.39566256 44.1021585 -82.91015625 41.75 C-88.97975325 38.74140874 -95.53964258 38.41598836 -102.02734375 40.41796875 C-108.01101228 43.1840042 -112.79449049 47.62455406 -115.9296875 53.47265625 C-117.96058231 59.63050307 -117.76156482 67.10480985 -115.16015625 73.0625 C-111.29651939 79.52929645 -105.8511285 83.67667333 -98.66015625 85.6875 C-96.23759515 85.87527832 -93.80624849 85.96338508 -91.37646484 85.97802734 C-90.67309998 85.98474457 -89.96973511 85.99146179 -89.24505615 85.99838257 C-86.93282891 86.01728902 -84.62089337 86.02128372 -82.30859375 86.0234375 C-80.68681727 86.02987313 -79.06504193 86.03660205 -77.44326782 86.04360962 C-74.04564732 86.05556591 -70.64812833 86.05929241 -67.25048828 86.05810547 C-62.92674111 86.05790297 -58.60365632 86.08514032 -54.28006554 86.11964989 C-50.92885436 86.14205102 -47.57779887 86.14593891 -44.22652054 86.14488602 C-42.63433182 86.14722464 -41.04213764 86.15594853 -39.45002365 86.17155075 C-26.43328496 86.28711617 -14.55801506 84.96540653 -4.66015625 75.6875 C3.66010407 67.45266329 8.12182554 58.62624667 8.41015625 46.8046875 C7.91011323 35.53901247 3.89390105 26.097295 -3.921875 17.953125 C-21.50481391 3.40518696 -46.05833722 4.17969359 -61.5 21.78515625 Z " fill="#007AFF" transform="translate(134.66015625,8.3125)"/>
<path d="M0 0 C2.88380329 1.17099248 4.5617467 3.12113388 6.70092773 5.35469055 C7.50014648 6.18097961 8.29936523 7.00726868 9.12280273 7.8585968 C9.72608398 8.49668274 10.32936523 9.13476868 10.95092773 9.79219055 C9.5448672 12.98055455 7.87895484 15.10425226 5.40673828 17.54756165 C4.32002083 18.62921097 4.32002083 18.62921097 3.21134949 19.73271179 C2.0363665 20.88750534 2.0363665 20.88750534 0.83764648 22.06562805 C0.03108109 22.86699188 -0.77548431 23.66835571 -1.60649109 24.4940033 C-4.18682103 27.05652131 -6.77371939 29.6122718 -9.36157227 32.16719055 C-11.93786809 34.71579463 -14.51267008 37.2658622 -17.08451843 39.81895447 C-18.6844441 41.40670769 -20.28703567 42.9917804 -21.89265442 44.57377625 C-25.84570978 48.49165537 -29.57690624 52.44089155 -33.04907227 56.79219055 C-36.20136312 56.21383851 -37.82992765 55.38250532 -40.07348633 53.10835266 C-40.91390472 52.26759438 -40.91390472 52.26759438 -41.77130127 51.40985107 C-42.36312195 50.80254654 -42.95494263 50.195242 -43.56469727 49.5695343 C-44.18052673 48.94945999 -44.7963562 48.32938568 -45.43084717 47.69052124 C-47.39407861 45.7105115 -49.34661662 43.72032136 -51.29907227 41.72969055 C-52.62910974 40.38460521 -53.95983105 39.04019567 -55.29125977 37.69648743 C-58.55184764 34.40284149 -61.80288414 31.10002716 -65.04907227 27.79219055 C-64.110293 26.68559645 -63.16986311 25.58040256 -62.22875977 24.4757843 C-61.70523926 23.86017639 -61.18171875 23.24456848 -60.64233398 22.61030579 C-58.54749317 20.2198247 -56.32934755 18.00539892 -54.04907227 15.79219055 C-51.00574461 17.15061075 -48.92598076 18.67682079 -46.59594727 21.05000305 C-45.97719727 21.67519836 -45.35844727 22.30039368 -44.72094727 22.9445343 C-44.08672852 23.59551086 -43.45250977 24.24648743 -42.79907227 24.91719055 C-42.14938477 25.57590149 -41.49969727 26.23461243 -40.83032227 26.9132843 C-39.23195499 28.53515698 -37.63845329 30.16151865 -36.04907227 31.79219055 C-33.13778579 30.4802741 -31.11590097 29.09104222 -28.90454102 26.79536438 C-28.31713135 26.19166519 -27.72972168 25.587966 -27.12451172 24.9659729 C-26.5014917 24.31694504 -25.87847168 23.66791718 -25.23657227 22.9992218 C-23.90106342 21.6335681 -22.56511259 20.26834652 -21.22875977 18.90351868 C-19.1300016 16.74881663 -17.03537558 14.59047332 -14.94848633 12.42427063 C-12.93051913 10.33403007 -10.89741352 8.25953625 -8.86157227 6.1867218 C-8.23855225 5.53162125 -7.61553223 4.87652069 -6.97363281 4.2015686 C-6.38622314 3.6073259 -5.79881348 3.01308319 -5.19360352 2.40083313 C-4.681604 1.87169815 -4.16960449 1.34256317 -3.64208984 0.7973938 C-2.04907227 -0.20780945 -2.04907227 -0.20780945 0 0 Z " fill="#FF6000" transform="translate(127.049072265625,31.207809448242188)"/>
<path d="M0 0 C3.13343785 2.31767666 3.92835494 4.17025412 4.79296875 7.9375 C4.83421875 8.989375 4.87546875 10.04125 4.91796875 11.125 C2.60796875 11.125 0.29796875 11.125 -2.08203125 11.125 C-2.74203125 9.475 -3.40203125 7.825 -4.08203125 6.125 C-7.45603703 5.70774322 -7.45603703 5.70774322 -11.08203125 6.125 C-13.30563805 8.0504644 -13.30563805 8.0504644 -14.08203125 11.125 C-14.01528841 13.90252888 -13.59475019 16.37496206 -13.08203125 19.125 C-8.91744926 20.07905572 -8.91744926 20.07905572 -4.76953125 19.4375 C-2.68209841 17.81394113 -2.42542778 16.70047398 -2.08203125 14.125 C0.22796875 14.125 2.53796875 14.125 4.91796875 14.125 C4.43173022 20.44610092 4.43173022 20.44610092 2.16796875 23.4375 C-2.5622647 26.98517509 -6.10377194 27.48389924 -11.86328125 26.66796875 C-15.85586793 25.69090969 -19.00734414 23.82751119 -21.21875 20.32421875 C-22.88914151 16.06887748 -22.61408837 11.60855449 -22.08203125 7.125 C-17.89977071 -1.38888752 -8.77878355 -3.68939496 0 0 Z " fill="#FF6000" transform="translate(72.08203125,114.875)"/>
<path d="M0 0 C2.536875 -0.061875 5.07375 -0.12375 7.6875 -0.1875 C8.47729248 -0.21481201 9.26708496 -0.24212402 10.08081055 -0.27026367 C14.61476924 -0.32357739 17.43712454 0.16424198 21 3 C23.46192771 6.69289156 23.6852305 9.71313113 23 14 C21.33201248 16.7998362 20.18077676 18.47068628 17.1875 19.8125 C14.11815566 20.07558666 11.07826095 20.05919733 8 20 C8 22.31 8 24.62 8 27 C5.36 27 2.72 27 0 27 C0 18.09 0 9.18 0 0 Z M8 6 C8 8.64 8 11.28 8 14 C10.33294775 14.04241723 12.66702567 14.04092937 15 14 C16.27003323 12.94689723 16.27003323 12.94689723 16.1875 10.5625 C16.26839983 7.83265325 16.26839983 7.83265325 14 6 C10.91652174 5.83318891 10.91652174 5.83318891 8 6 Z " fill="#FF6000" transform="translate(3,114)"/>
<path d="M0 0 C2.31 0 4.62 0 7 0 C7 9.24 7 18.48 7 28 C4 28 1 28 -2 28 C-2.9075 28.226875 -3.815 28.45375 -4.75 28.6875 C-8.81509492 29.07837451 -10.6198745 28.22780999 -14 26 C-16.42297351 23.02635069 -16.35895518 19.72559543 -16.25390625 15.96484375 C-15.87642532 13.04372208 -14.85858628 11.25685476 -13 9 C-9.78463789 6.67163434 -6.88795111 6.74643797 -3 7 C-2.34 7.33 -1.68 7.66 -1 8 C-0.67 5.36 -0.34 2.72 0 0 Z M-9 15 C-9.33333333 18 -9.33333333 18 -9 21 C-8.34 21.66 -7.68 22.32 -7 23 C-3.70285207 22.67028521 -2.3773161 22.3773161 0 20 C-0.18757062 16.17435335 -0.18757062 16.17435335 -2 13 C-5.961168 12.60909667 -5.961168 12.60909667 -9 15 Z " fill="#FF6000" transform="translate(152,113)"/>
<path d="M0 0 C2.31 0 4.62 0 7 0 C7 4.62 7 9.24 7 14 C12.51563484 13.67811123 12.51563484 13.67811123 14 12 C14.23427778 9.98405418 14.41336124 7.961526 14.5625 5.9375 C14.64628906 4.83277344 14.73007813 3.72804688 14.81640625 2.58984375 C14.87699219 1.73519531 14.93757813 0.88054687 15 0 C17.31 0 19.62 0 22 0 C22 6.6 22 13.2 22 20 C19 20 16 20 13 20 C12.071875 20.20625 11.14375 20.4125 10.1875 20.625 C6.67757919 21.03793186 5.08791882 20.62973493 2 19 C0 17 0 17 -0.1953125 13.0859375 C-0.18200376 11.51550649 -0.15813602 9.94513779 -0.125 8.375 C-0.11597656 7.57320312 -0.10695313 6.77140625 -0.09765625 5.9453125 C-0.07406223 3.96341477 -0.03819065 1.98167019 0 0 Z " fill="#FF6000" transform="translate(112,121)"/>
<path d="M0 0 C2.45243461 1.90063682 3.62927427 3.25854855 5 6 C5.35983656 10.39000602 5.53628918 12.92742164 3.5625 16.875 C-0.02230548 19.84776552 -3.35882793 20.83591816 -8 21 C-12.18189967 20.09260667 -14.58365012 18.62452481 -17 15 C-17.5461026 11.6084154 -17.54104628 8.39236018 -17 5 C-12.23839915 -1.30590383 -7.28362455 -1.73858669 0 0 Z M-10 6 C-10.25003964 9.45821402 -10.25003964 9.45821402 -10 13 C-9.34 13.66 -8.68 14.32 -8 15 C-4.69316534 14.71016731 -4.69316534 14.71016731 -2 13 C-1.74994614 10.04182893 -1.74994614 10.04182893 -2 7 C-3.83265325 4.73160017 -3.83265325 4.73160017 -6.5625 4.8125 C-8.94689723 4.72996677 -8.94689723 4.72996677 -10 6 Z " fill="#FF6000" transform="translate(105,121)"/>
<path d="M0 0 C2.5625 2.3125 2.5625 2.3125 4 5 C4 6.32 4 7.64 4 9 C2.02 9 0.04 9 -2 9 C-2.33 7.68 -2.66 6.36 -3 5 C-4.65 5.33 -6.3 5.66 -8 6 C-9.01540112 10.10223585 -9.01540112 10.10223585 -8 14 C-5.52733235 13.65555119 -5.52733235 13.65555119 -3 13 C-2.67 12.34 -2.34 11.68 -2 11 C-0.02 11 1.96 11 4 11 C3.51802657 16.42220114 3.51802657 16.42220114 1.375 18.8125 C-1.85395773 20.42697887 -4.38813968 20.87545309 -8 21 C-11.49470122 19.79029573 -13.45199065 18.60104251 -15.9375 15.875 C-17.46667528 11.73723158 -17.17680305 8.22543377 -16 4 C-11.76191241 -1.65078345 -6.42534095 -1.70491899 0 0 Z " fill="#FF6000" transform="translate(44,121)"/>
<path d="M0 0 C2.31 0 4.62 0 7 0 C7 9.24 7 18.48 7 28 C4.69 28 2.38 28 0 28 C0 18.76 0 9.52 0 0 Z " fill="#FF6000" transform="translate(79,113)"/>
</svg>
