<svg width="83" height="10" viewBox="0 0 83 10" fill="none" xmlns="http://www.w3.org/2000/svg">
<path d="M2.10541 10H0V0H2.10541V10Z" fill="white"/>
<path d="M13.3876 6.88569V0H15.4786V10H13.3299L8.25385 3.09999V10H6.14848V0H8.29713L13.3876 6.88569Z" fill="white"/>
<path d="M18.7427 0H25.9674V1.84285H23.4005V10H21.3095V1.84285H18.7427V0Z" fill="white"/>
<path d="M35.4196 0V1.84285H31.3241V3.9857H34.8572V5.82855H31.3241V8.15713H35.4196V10H29.2187V0H35.4196Z" fill="white"/>
<path d="M47.3034 10H44.7509L41.9245 5.8857H41.2467V10H39.1413V0H43.2079C44.2462 0 45.0393 0.276189 45.5873 0.828567C46.1449 1.38095 46.4237 2.10475 46.4237 2.99999C46.4237 4.45712 45.6931 5.3476 44.2318 5.67141L47.3034 10ZM41.2467 4.1857H42.9051C43.3666 4.1857 43.7174 4.09522 43.9578 3.91427C44.2077 3.7238 44.3327 3.41904 44.3327 2.99999C44.3327 2.59047 44.2077 2.29523 43.9578 2.11428C43.7174 1.93333 43.3666 1.84285 42.9051 1.84285H41.2467V4.1857Z" fill="white"/>
<path d="M57.824 6.88569V0H59.915V10H57.7663L52.6902 3.09999V10H50.5848V0H52.7335L57.824 6.88569Z" fill="white"/>
<path d="M68.8896 4.84284L72.3794 10H69.9567L67.7504 6.5714L65.5584 10H63.1501L66.6255 4.85713L63.3376 0H65.7314L67.7504 3.12856L69.7836 0H72.1919L68.8896 4.84284Z" fill="white"/>
<path d="M74.8338 0H82.0585V1.84285H79.4916V10H77.4007V1.84285H74.8338V0Z" fill="white"/>
</svg>
