<svg width="116" height="123" viewBox="0 0 116 123" fill="none"
    xmlns="http://www.w3.org/2000/svg">
    <path d="M46.6516 4.484C47.9219 2.2837 50.7354 1.52982 52.9357 2.80016L111.368 36.5359C113.568 37.8062 114.322 40.6197 113.052 42.82L69.3484 118.516C68.0781 120.716 65.2646 121.47 63.0643 120.2L4.63231 86.4641C2.43201 85.1938 1.67813 82.3803 2.94847 80.18L46.6516 4.484Z" fill="#DFE1E6"/>
    <path d="M48.9994 11.1515C50.2697 8.95118 53.0833 8.1973 55.2836 9.46764L105.084 38.2197C107.284 39.49 108.038 42.3035 106.767 44.5038L67.6646 112.232C66.3943 114.432 63.5807 115.186 61.3805 113.916L11.5805 85.1636C9.38017 83.8933 8.62629 81.0798 9.89664 78.8794L48.9994 11.1515Z" fill="#C1C7D0"/>
    <path d="M91.3523 16.2634H24.2643C21.7236 16.2634 19.6639 18.3231 19.6639 20.8638V107.12C19.6639 109.661 21.7236 111.72 24.2643 111.72H75.6346L95.9527 92.1688V20.8638C95.9527 18.3231 93.893 16.2634 91.3523 16.2634Z" fill="#EBECF0"/>
    <path d="M75.6346 92.1687H95.9527L75.6346 111.72V92.1687Z" fill="#DFE1E6"/>
    <path d="M75.6346 111.72H55.3165L75.6346 92.1688V111.72Z" fill="#B3BAC5"/>
    <path fill-rule="evenodd" clip-rule="evenodd" d="M42.0513 53.2038C42.0513 51.6205 43.3348 50.3369 44.9181 50.3369H72.1534C73.7367 50.3369 75.0203 51.6205 75.0203 53.2038C75.0203 54.7871 73.7367 56.0707 72.1534 56.0707H44.9181C43.3348 56.0707 42.0513 54.7871 42.0513 53.2038ZM42.0513 64.6714C42.0513 63.0881 43.3348 61.8045 44.9181 61.8045H72.1534C73.7367 61.8045 75.0203 63.0881 75.0203 64.6714C75.0203 66.2547 73.7367 67.5383 72.1534 67.5383H44.9181C43.3348 67.5383 42.0513 66.2547 42.0513 64.6714ZM44.9181 73.2717C43.3348 73.2717 42.0513 74.5552 42.0513 76.1386C42.0513 77.7219 43.3348 79.0054 44.9181 79.0054H72.1534C73.7367 79.0054 75.0203 77.7219 75.0203 76.1386C75.0203 74.5552 73.7367 73.2717 72.1534 73.2717H44.9181Z" fill="#C1C7D0"/>
</svg>
