<svg width="106" height="80" viewBox="0 0 106 80" fill="none"
    xmlns="http://www.w3.org/2000/svg">
    <path d="M0.733188 9.02048C0.731073 8.92295 0.729956 8.83951 0.731536 8.74197C0.809984 3.90053 4.7591 0 9.61923 0H24.4333C34.4138 0 35.6614 8.88888 48.137 8.88888H86.6562C91.4359 8.88888 95.3345 12.6614 95.5368 17.3914C95.5478 17.6485 95.551 17.8835 95.5655 18.1404C95.8 22.3119 97.9754 61.2038 97.9762 68.6798C97.9771 76.5818 93.1148 79.9999 86.6562 79.9999H12.0504C7.1412 79.9999 4.37799 76.5804 3.16152 71.111C1.97917 65.795 0.798499 12.0327 0.733188 9.02048Z" fill="#C1C7D0"/>
    <path d="M3.16162 71.1112C3.16162 66.202 9.23954 34.0364 10.4551 29.6299C11.6707 25.2233 14.4348 20.741 19.344 20.741L96.3809 20.741C100.903 20.741 104.636 24.1174 105.197 28.4866C105.294 29.2429 105.209 29.9884 105.082 30.7403C104.049 36.8439 99.0653 66.2149 97.9763 71.1112C96.7598 76.5807 93.9966 80 89.0874 80H12.0505C7.14131 80 3.16162 76.0203 3.16162 71.1112Z" fill="#DFE1E6"/>
</svg>
