<svg width="113" height="113" viewBox="0 0 113 113" fill="none" xmlns="http://www.w3.org/2000/svg">
<path d="M6.57959 23.58C6.57959 18.278 10.8777 13.98 16.1796 13.98H32.1788C42.9577 13.98 44.3051 23.58 57.7788 23.58H96.8195C102.121 23.58 106.419 27.8781 106.419 33.18V89.5C106.419 94.8019 102.121 99.0999 96.8195 99.0999H16.1796C10.8776 99.0999 6.57959 94.8019 6.57959 89.4999V23.58Z" fill="#52AFE0"/>
<path d="M6.57959 23.58C6.57959 18.278 10.8777 13.98 16.1796 13.98H32.1788C42.9577 13.98 44.3051 23.58 57.7788 23.58H96.8195C102.121 23.58 106.419 27.8781 106.419 33.18V89.5C106.419 94.8019 102.121 99.0999 96.8195 99.0999H16.1796C10.8776 99.0999 6.57959 94.8019 6.57959 89.4999V23.58Z" fill="url(#paint0_linear_5077_43399)" fill-opacity="0.2"/>
<g filter="url(#filter0_i_5077_43399)">
<path d="M5.30021 89.5C4.69978 84.6968 1.84616 51.7285 1.49555 47.6696C1.47186 47.3954 1.45729 47.1218 1.46894 46.8468C1.68541 41.7367 5.89674 37.6602 11.0602 37.6602L101.94 37.6602C107.104 37.6602 111.315 41.7366 111.531 46.8469C111.543 47.1218 111.528 47.3954 111.505 47.6696C111.154 51.7284 108.301 84.6968 107.7 89.5C107.06 94.6199 103.402 99.1 98.1001 99.1H14.9002C9.59827 99.1 5.94021 94.6198 5.30021 89.5Z" fill="#73D0FA"/>
<path d="M5.30021 89.5C4.69978 84.6968 1.84616 51.7285 1.49555 47.6696C1.47186 47.3954 1.45729 47.1218 1.46894 46.8468C1.68541 41.7367 5.89674 37.6602 11.0602 37.6602L101.94 37.6602C107.104 37.6602 111.315 41.7366 111.531 46.8469C111.543 47.1218 111.528 47.3954 111.505 47.6696C111.154 51.7284 108.301 84.6968 107.7 89.5C107.06 94.6199 103.402 99.1 98.1001 99.1H14.9002C9.59827 99.1 5.94021 94.6198 5.30021 89.5Z" fill="url(#paint1_radial_5077_43399)" fill-opacity="0.16"/>
</g>
<defs>
<filter id="filter0_i_5077_43399" x="1.46484" y="31.2602" width="110.071" height="67.8399" filterUnits="userSpaceOnUse" color-interpolation-filters="sRGB">
<feFlood flood-opacity="0" result="BackgroundImageFix"/>
<feBlend mode="normal" in="SourceGraphic" in2="BackgroundImageFix" result="shape"/>
<feColorMatrix in="SourceAlpha" type="matrix" values="0 0 0 0 0 0 0 0 0 0 0 0 0 0 0 0 0 0 127 0" result="hardAlpha"/>
<feOffset dy="-6.4"/>
<feGaussianBlur stdDeviation="3.2"/>
<feComposite in2="hardAlpha" operator="arithmetic" k2="-1" k3="1"/>
<feColorMatrix type="matrix" values="0 0 0 0 0.321569 0 0 0 0 0.686275 0 0 0 0 0.878431 0 0 0 0.32 0"/>
<feBlend mode="normal" in2="shape" result="effect1_innerShadow_5077_43399"/>
</filter>
<linearGradient id="paint0_linear_5077_43399" x1="56.4988" y1="28.7" x2="56.4988" y2="47.9" gradientUnits="userSpaceOnUse">
<stop stop-color="#52AFE0"/>
<stop offset="1" stop-color="#00529E" stop-opacity="0.1"/>
</linearGradient>
<radialGradient id="paint1_radial_5077_43399" cx="0" cy="0" r="1" gradientUnits="userSpaceOnUse" gradientTransform="translate(56.5002 47.9002) rotate(90) scale(38.4 61.4401)">
<stop stop-color="white"/>
<stop offset="1" stop-color="white" stop-opacity="0"/>
</radialGradient>
</defs>
</svg>
