<svg width="116" height="122" viewBox="0 0 116 122" fill="none"
    xmlns="http://www.w3.org/2000/svg">
    <path d="M46.6517 3.984C47.9221 1.7837 50.7356 1.02982 52.9359 2.30016L111.368 36.0359C113.568 37.3062 114.322 40.1197 113.052 42.32L69.3486 118.016C68.0783 120.216 65.2648 120.97 63.0645 119.7L4.63249 85.9641C2.43219 84.6938 1.67831 81.8803 2.94866 79.68L46.6517 3.984Z" fill="#DFE1E6"/>
    <path d="M48.9996 10.6515C50.27 8.45118 53.0835 7.6973 55.2838 8.96764L105.084 37.7197C107.284 38.99 108.038 41.8035 106.768 44.0038L67.6649 111.732C66.3945 113.932 63.581 114.686 61.3807 113.416L11.5807 84.6636C9.38041 83.3933 8.62653 80.5798 9.89688 78.3794L48.9996 10.6515Z" fill="#C1C7D0"/>
    <path d="M91.3525 15.7634H24.2644C21.7237 15.7634 19.6641 17.8231 19.6641 20.3638V106.62C19.6641 109.161 21.7237 111.22 24.2644 111.22H75.6347L95.9528 91.6688V20.3638C95.9528 17.8231 93.8932 15.7634 91.3525 15.7634Z" fill="#EBECF0"/>
    <path d="M75.6348 91.6687H95.9529L75.6348 111.22V91.6687Z" fill="#DFE1E6"/>
    <path d="M75.6348 111.22H55.3167L75.6348 91.6688V111.22Z" fill="#B3BAC5"/>
    <path fill-rule="evenodd" clip-rule="evenodd" d="M42.0513 52.7038C42.0513 51.1205 43.3348 49.8369 44.9181 49.8369H72.1534C73.7367 49.8369 75.0203 51.1205 75.0203 52.7038C75.0203 54.2871 73.7367 55.5707 72.1534 55.5707H44.9181C43.3348 55.5707 42.0513 54.2871 42.0513 52.7038ZM42.0513 64.1714C42.0513 62.5881 43.3348 61.3045 44.9181 61.3045H72.1534C73.7367 61.3045 75.0203 62.5881 75.0203 64.1714C75.0203 65.7547 73.7367 67.0383 72.1534 67.0383H44.9181C43.3348 67.0383 42.0513 65.7547 42.0513 64.1714ZM44.9181 72.7717C43.3348 72.7717 42.0513 74.0552 42.0513 75.6386C42.0513 77.2219 43.3348 78.5054 44.9181 78.5054H72.1534C73.7367 78.5054 75.0203 77.2219 75.0203 75.6386C75.0203 74.0552 73.7367 72.7717 72.1534 72.7717H44.9181Z" fill="#C1C7D0"/>
</svg>
