<svg width="49" height="48" viewBox="0 0 49 48" fill="none" xmlns="http://www.w3.org/2000/svg">
<path d="M13.1562 46.6016H35.8203C38.9609 46.6016 40.5078 45.0547 40.5078 41.6562V24.1484C40.5078 21.0781 39.2188 19.4844 36.6406 19.2266V13.4375C36.6406 4.53125 30.7109 0.242188 24.4766 0.242188C18.2656 0.242188 12.3359 4.53125 12.3359 13.4375V19.3203C9.92188 19.6953 8.46875 21.2422 8.46875 24.1484V41.6562C8.46875 45.0547 10.0156 46.6016 13.1562 46.6016ZM16.7891 12.9922C16.7891 7.48438 20.2812 4.50781 24.4766 4.50781C28.6719 4.50781 32.1875 7.48438 32.1875 12.9922V19.2031L16.7891 19.2266V12.9922Z" fill="#18181B"/>
</svg>
