<svg fill="none" height="17" viewBox="0 0 31 17" width="31" xmlns="http://www.w3.org/2000/svg" xmlns:xlink="http://www.w3.org/1999/xlink"><clipPath id="a"><path d="m.943848.556396h29.2676v15.8871h-29.2676z"/></clipPath><g clip-path="url(#a)" fill="#18181b"><path d="m12.5196 3.46581h-6.60505c-1.02539 0-2.08984.12696-2.68554.72266-.58594.5957-.71289 1.64063-.71289 2.66602v3.31051c0 1.0059.12695 2.0508.71289 2.6465.5957.5859 1.65039.7227 2.65625.7227h4.78104l-.1521.4101c-.1564.4224-.17.8173-.08 1.1621h-4.28527c-1.66016 0-3.06641-.1562-4.0625-1.1523-.9961-.9961-1.142582-2.3828-1.142582-4.05273v-2.83204c0-1.63086.146482-3.02734 1.142582-4.02344.99609-.99609 2.40234-1.15234 4.04297-1.15234h7.6412zm13.0531-.41992c.9961.9961 1.1426 2.38281 1.1426 4.05274v2.80274c0 1.66993-.1465 3.05663-1.1426 4.05273s-2.4023 1.1523-4.0723 1.1523h-7.3775l1.2509-1.5722h6.4001c1.0058 0 2.0605-.1368 2.6465-.7227.5957-.5957.7226-1.6406.7226-2.6465v-3.33981c0-1.00586-.1269-2.04102-.7226-2.63672-.586-.58594-1.6407-.72266-2.6465-.72266h-4.5467l.1521-.41015c.1564-.42235.17-.81726.08-1.16211h4.0411c1.67 0 3.0762.15625 4.0723 1.15234zm4.2773 5.44922c0 1.49414-1.0351 2.48049-1.8066 2.52929v-5.04882c.7715.04883 1.8066 1.03516 1.8066 2.51953z"/><path d="m8.8833 8.03613c-.2832.35156-.44922.76172-.44922 1.20117 0 .9766.80079 1.7578 1.78712 1.7578h1.3868l-.5216 1.4062h-5.71872c-.66406 0-1.06445-.0976-1.33789-.3711-.27344-.2734-.3711-.664-.3711-1.3378v-4.36526c0-.68359.09766-1.08398.3711-1.35742.26367-.27344.66406-.37109 1.36718-.37109h6.22143zm14.7461-3.06641c.2637.27344.3711.66406.3711 1.33789v4.38479c0 .6738-.1074 1.0644-.3711 1.3378-.2734.2735-.664.3711-1.3378.3711h-6.0163l2.735-3.43744c.2832-.35156.4492-.76172.4492-1.20117 0-.97656-.8008-1.75781-1.7871-1.75781h-1.3867l.5215-1.40625h5.4844c.664 0 1.0644.09765 1.3378.37109z"/><path d="m9.76221 9.23725c0 .24414.19531.41992.44919.41992h3.3105l-1.7676 4.74613c-.2246.625.4395.9668.8399.4687l5.3516-6.7285c.0976-.12695.166-.25391.166-.38086 0-.24414-.1953-.41992-.4492-.41992h-3.3106l1.7676-4.7461c.2246-.625-.4395-.96679-.8399-.46875l-5.35147 6.71875c-.10743.13672-.16602.26368-.16602.39063z"/></g></svg>