<svg width="81" height="80" viewBox="0 0 81 80" fill="none" xmlns="http://www.w3.org/2000/svg">
<g clip-path="url(#clip0_5825_43947)">
<path d="M14.5693 35.8791H66.4649C69.8881 35.8791 73.0032 36.6322 75.6733 38.0357L67.2522 18.2496C65.0272 12.9437 60.4401 9.99976 54.3126 9.99976H26.7217C20.5941 9.99976 16.0071 12.9437 13.7478 18.2496L5.3267 38.0015C8.03102 36.6322 11.1461 35.8791 14.5693 35.8791ZM14.5693 68.8102H66.4649C74.7833 68.8102 80.5 63.1277 80.5 54.8436C80.5 46.5594 74.7833 40.8769 66.4649 40.8769H14.5693C6.21673 40.8769 0.5 46.5594 0.5 54.8436C0.5 63.1277 6.21673 68.8102 14.5693 68.8102ZM62.8785 54.8436C62.869 53.0047 64.3864 51.512 66.2253 51.531C68.0452 51.5498 69.513 53.0236 69.5036 54.8436C69.4942 56.6541 68.0357 58.1032 66.2253 58.1219C64.3958 58.1408 62.888 56.6731 62.8785 54.8436Z" fill="url(#paint0_linear_5825_43947)"/>
</g>
<defs>
<linearGradient id="paint0_linear_5825_43947" x1="40.5171" y1="9.75329" x2="40.5" y2="68.8102" gradientUnits="userSpaceOnUse">
<stop stop-color="#97A0AF"/>
<stop offset="0.477123" stop-color="#B3BAC5"/>
<stop offset="0.505058" stop-color="#97A0AF"/>
<stop offset="1" stop-color="#7A869A"/>
</linearGradient>
<clipPath id="clip0_5825_43947">
<rect width="80" height="80" fill="white" transform="translate(0.5)"/>
</clipPath>
</defs>
</svg>
