<svg width="76" height="76" viewBox="0 0 76 76" fill="none" xmlns="http://www.w3.org/2000/svg">
  <!-- Back document (right tilt) -->
  <path d="M38.2895 14.1805C38.5749 13.1851 39.6133 12.6096 40.6087 12.895L53.4201 16.5686C54.8457 16.9774 56.0795 17.8798 56.9009 19.1146L63.1146 28.4543C64.1302 29.9809 64.4243 31.8765 63.9189 33.639L57.1355 57.2954C56.8501 58.2908 55.8117 58.8664 54.8163 58.5809L29.5832 51.3455C28.5878 51.06 28.0122 50.0217 28.2977 49.0263L38.2895 14.1805Z" fill="#FCFCFD" stroke="#E5E5EB" stroke-width="0.5"/>
  <path d="M53.9956 17.0008C55.0009 17.346 55.8673 18.013 56.4586 18.9018L63.123 28.9177C63.9145 30.1075 64.1737 31.5689 63.8485 32.9527L63.825 32.946C63.8408 32.6291 63.7308 32.3088 63.5768 32.0509C63.3837 31.7278 63.0826 31.4328 62.7577 31.3396L53.6257 28.721C52.763 28.4737 52.2642 27.5738 52.5116 26.7111L54.7856 18.7807C54.8787 18.4557 54.7881 18.044 54.6164 17.7091C54.4793 17.4418 54.2659 17.1788 53.9888 17.0243L53.9956 17.0008Z" fill="#F3F3F8" stroke="#E5E5EB" stroke-width="0.5"/>
  <path d="M29.5832 51.3455L54.8163 58.581C55.8117 58.8664 56.8501 58.2908 57.1355 57.2954L57.4801 56.0938C57.1946 57.0892 56.1563 57.6648 55.1609 57.3794L29.9278 50.1439C28.9323 49.8585 28.3568 48.8201 28.6422 47.8247L28.2977 49.0263C28.0122 50.0217 28.5878 51.06 29.5832 51.3455Z" fill="#E5E5EB"/>
  <!-- Center document -->
  <path d="M24 19.875C24 18.8395 24.8395 18 25.875 18H39.2026C40.6857 18 42.1204 18.5274 43.2504 19.4879L51.7978 26.7531C53.1949 27.9406 54 29.6817 54 31.5153V56.125C54 57.1605 53.1605 58 52.125 58H25.875C24.8395 58 24 57.1605 24 56.125V19.875Z" fill="#FCFCFD" stroke="#E5E5EB" stroke-width="0.5"/>
  <path d="M39.875 18.2568C40.9365 18.3116 41.9532 18.7139 42.7666 19.4053L51.9336 27.1963C53.0223 28.1218 53.6743 29.4551 53.7432 30.875H53.7188C53.6466 30.566 53.4525 30.2884 53.2334 30.083C52.9588 29.8256 52.588 29.625 52.25 29.625H42.75C41.8525 29.625 41.125 28.8975 41.125 28V19.75C41.125 19.412 40.9244 19.0412 40.667 18.7666C40.4616 18.5475 40.184 18.3534 39.875 18.2812V18.2568Z" fill="#F3F3F8" stroke="#E5E5EB" stroke-width="0.5"/>
  <path d="M25.875 58H52.125C53.1605 58 54 57.1605 54 56.125V54.875C54 55.9105 53.1605 56.75 52.125 56.75H25.875C24.8395 56.75 24 55.9105 24 54.875V56.125C24 57.1605 24.8395 58 25.875 58Z" fill="#E5E5EB"/>
  <!-- Front document (left tilt) -->
  <path d="M10.3232 27.4242C10.0377 26.4288 10.6133 25.3904 11.6087 25.105L24.4201 21.4314C25.8457 21.0226 27.3702 21.1341 28.7212 21.7459L38.94 26.3738C40.6102 27.1302 41.8641 28.5819 42.3695 30.3444L49.1529 54.0008C49.4383 54.9962 48.8627 56.0346 47.8673 56.32L22.6342 63.5555C21.6388 63.8409 20.6004 63.2653 20.315 62.2699L10.3232 27.4242Z" fill="#FCFCFD" stroke="#E5E5EB" stroke-width="0.5"/>
  <path d="M25.1372 21.493C26.1726 21.253 27.2608 21.3595 28.2333 21.7999L39.1927 26.7623C40.4943 27.3519 41.4886 28.4538 41.9461 29.7998L41.9227 29.8065C41.7681 29.5294 41.5051 29.316 41.2378 29.179C40.9029 29.0072 40.4912 28.9166 40.1663 29.0097L31.0343 31.6283C30.1716 31.8757 29.2717 31.3769 29.0243 30.5142L26.7503 22.5838C26.6571 22.2588 26.3621 21.9577 26.039 21.7647C25.7811 21.6107 25.4608 21.5007 25.1439 21.5164L25.1372 21.493Z" fill="#F3F3F8" stroke="#E5E5EB" stroke-width="0.5"/>
  <path d="M22.6342 63.5555L47.8673 56.32C48.8627 56.0346 49.4383 54.9962 49.1529 54.0008L48.8083 52.7992C49.0937 53.7947 48.5182 54.833 47.5228 55.1184L22.2896 62.3539C21.2942 62.6393 20.2559 62.0638 19.9705 61.0684L20.315 62.2699C20.6004 63.2654 21.6388 63.8409 22.6342 63.5555Z" fill="#E5E5EB"/>
</svg>
