<svg fill="none" height="17" viewBox="0 0 24 17" width="24" xmlns="http://www.w3.org/2000/svg" xmlns:xlink="http://www.w3.org/1999/xlink"><clipPath id="a"><path d="m.211426.379883h22.8448v16.2402h-22.8448z"/></clipPath><g clip-path="url(#a)" fill="#18181b"><path d="m1.68753 7.22558c.19531.18555.46875.18555.65429-.00976 2.40235-2.54883 5.56641-3.89649 9.11128-3.89649 3.5645 0 6.7481 1.35743 9.1309 3.90625.1758.17578.4394.16602.6347-.01953l1.3477-1.34765c.1758-.17579.166-.39063.0293-.55664-2.2949-2.83204-6.6113-4.912112-11.1426-4.912112-4.52143 0-8.85737 2.080072-11.142531 4.912112-.136719.16601-.136719.38085.029297.55664z"/><path d="m5.7402 11.3076c.21484.2051.47852.1758.67383-.039 1.17187-1.29887 3.08594-2.24613 5.03907-2.23637 1.9727-.00976 3.8867.9668 5.0781 2.26567.1758.205.42.1953.6348 0l1.5137-1.50395c.1562-.15625.1758-.37109.0293-.54687-1.4746-1.80664-4.209-3.16407-7.2559-3.16407-3.04688 0-5.78126 1.35743-7.25587 3.16407-.14648.17578-.13672.37109.0293.54687z"/><path d="m11.4531 16.6201c.2149 0 .4004-.0976.7813-.4687l2.3828-2.2852c.1465-.1465.1855-.3613.0488-.5371-.6348-.8203-1.8359-1.5332-3.2129-1.5332-1.416 0-2.61715.7422-3.25191 1.5918-.09766.1563-.0586.332.09765.4785l2.37306 2.2852c.3808.3613.5664.4687.7812.4687z"/></g></svg>